<?xml version="1.0" encoding="UTF-8" standalone="no"?>
<!DOCTYPE svg PUBLIC "-//W3C//DTD SVG 1.1//EN" "http://www.w3.org/Graphics/SVG/1.1/DTD/svg11.dtd">
<svg width="100%" height="100%" viewBox="0 0 1200 756" version="1.1" xmlns="http://www.w3.org/2000/svg" xmlns:xlink="http://www.w3.org/1999/xlink" xml:space="preserve" xmlns:serif="http://www.serif.com/" style="fill-rule:evenodd;clip-rule:evenodd;stroke-linejoin:round;stroke-miterlimit:2;">
    <g transform="matrix(1,0,0,1,5e-06,-72.386)">
        <path d="M926.114,774.809C919.129,801.407 894.655,818.029 894.655,818.029C894.655,818.029 881.505,791.527 888.489,764.929C895.474,738.331 919.948,721.71 919.948,721.71C919.948,721.71 933.098,748.211 926.114,774.809Z" style="fill:rgb(63,61,86);fill-rule:nonzero;"/>
    </g>
    <g transform="matrix(1,0,0,1,5e-06,-72.386)">
        <path d="M915.52,769.183C895.957,788.51 893.769,818.014 893.769,818.014C893.769,818.014 923.297,816.183 942.86,796.855C962.422,777.528 964.611,748.024 964.611,748.024C964.611,748.024 935.082,749.855 915.52,769.183Z" style="fill:rgb(108,99,255);fill-rule:nonzero;"/>
    </g>
    <g transform="matrix(1,0,0,1,5e-06,-72.386)">
        <path d="M206.702,674.194L243.544,674.194L334.331,638.669C334.331,638.669 398.804,612.353 393.541,662.353C388.278,712.352 379.067,779.456 379.067,779.456C379.067,779.456 350.121,766.298 334.331,770.245C318.542,774.192 329.068,689.984 329.068,689.984C329.068,689.984 200.123,751.824 188.281,743.93C176.44,736.035 173.808,680.773 173.808,680.773L206.702,674.194Z" style="fill:rgb(47,46,65);fill-rule:nonzero;"/>
    </g>
    <g transform="matrix(1,0,0,1,5e-06,-72.386)">
        <path d="M206.702,674.194L243.544,674.194L334.331,638.669C334.331,638.669 398.804,612.353 393.541,662.353C388.278,712.352 379.067,779.456 379.067,779.456C379.067,779.456 350.121,766.298 334.331,770.245C318.542,774.192 329.068,689.984 329.068,689.984C329.068,689.984 200.123,751.824 188.281,743.93C176.44,736.035 173.808,680.773 173.808,680.773L206.702,674.194Z" style="fill-opacity:0.1;fill-rule:nonzero;"/>
    </g>
    <g transform="matrix(1,0,0,1,5e-06,-72.386)">
        <path d="M264.746,558.82L309.332,622.88L413.277,709.72C413.277,709.72 509.328,732.088 496.17,747.877C483.013,763.666 402.751,732.088 402.751,732.088C402.751,732.088 283.017,645.248 279.069,638.669C275.122,632.09 231.702,570.249 231.702,570.249L264.746,558.82Z" style="fill:rgb(160,97,106);fill-rule:nonzero;"/>
    </g>
    <g transform="matrix(1,0,0,1,5e-06,-72.386)">
        <path d="M264.746,558.82L309.332,622.88L413.277,709.72C413.277,709.72 509.328,732.088 496.17,747.877C483.013,763.666 402.751,732.088 402.751,732.088C402.751,732.088 283.017,645.248 279.069,638.669C275.122,632.09 231.702,570.249 231.702,570.249L264.746,558.82Z" style="fill-opacity:0.1;fill-rule:nonzero;"/>
    </g>
    <g transform="matrix(1,0,0,1,5e-06,-72.386)">
        <path d="M238.281,507.092L267.227,563.67C267.227,563.67 260.649,591.301 250.122,593.933C239.596,596.564 194.86,559.723 194.86,559.723L238.281,507.092Z" style="fill:rgb(208,205,225);fill-rule:nonzero;"/>
    </g>
    <g transform="matrix(1,0,0,1,5e-06,-72.386)">
        <path d="M238.281,507.092L267.227,563.67C267.227,563.67 260.649,591.301 250.122,593.933C239.596,596.564 194.86,559.723 194.86,559.723L238.281,507.092Z" style="fill-opacity:0.1;fill-rule:nonzero;"/>
    </g>
    <g transform="matrix(1,0,0,1,5e-06,-72.386)">
        <path d="M591.419,644.9L599.97,680.172C600.065,680.565 600.051,680.977 599.927,681.362L561.14,802.574C560.848,803.484 559.997,804.105 559.041,804.105C557.926,804.105 556.978,803.259 556.852,802.151L551.487,754.932C551.451,754.618 551.483,754.301 551.581,754.001L587.184,644.737C587.478,643.833 588.327,643.216 589.278,643.216C590.292,643.216 591.181,643.916 591.419,644.9Z" style="fill:rgb(47,46,65);fill-rule:nonzero;"/>
    </g>
    <g transform="matrix(1,0,0,1,61.9681,0)">
        <path d="M526.306,575.493L534.2,605.756L499.99,716.28L492.096,682.07L526.306,575.493Z" style="fill:rgb(242,242,242);fill-rule:nonzero;"/>
    </g>
    <g transform="matrix(1,0,0,1,5e-06,-72.386)">
        <path d="M415.909,812.35C417.224,816.297 552.748,811.034 554.064,809.718C555.211,808.07 556.181,806.306 556.959,804.455C558.196,801.824 559.327,799.192 559.327,799.192L554.064,756.588L419.856,751.824C419.856,751.824 416.501,787.929 415.817,804.455C415.646,808.626 415.646,811.56 415.909,812.35Z" style="fill:rgb(47,46,65);fill-rule:nonzero;"/>
    </g>
    <g transform="matrix(1,0,0,1,61.9681,0)">
        <path d="M474.991,689.965L477.622,726.806L418.413,726.806L418.413,689.965L474.991,689.965Z" style="fill-opacity:0.1;fill-rule:nonzero;"/>
    </g>
    <g transform="matrix(1,0,0,1,61.9681,0)">
        <path d="M398.677,701.806L399.03,701.736L397.361,717.596L364.467,717.596L364.467,701.806L398.677,701.806Z" style="fill-opacity:0.1;fill-rule:nonzero;"/>
    </g>
    <g transform="matrix(1,0,0,1,5e-06,-72.386)">
        <path d="M415.909,812.35C417.224,816.297 552.748,811.034 554.064,809.718C555.211,808.07 556.181,806.306 556.959,804.455L415.817,804.455C415.646,808.626 415.646,811.56 415.909,812.35Z" style="fill-opacity:0.1;fill-rule:nonzero;"/>
    </g>
    <g transform="matrix(1,0,0,1,61.9681,0)">
        <circle cx="196.049" cy="357.076" r="59.209" style="fill:rgb(160,97,106);"/>
    </g>
    <g transform="matrix(1,0,0,1,5e-06,-72.386)">
        <path d="M254.07,482.093C254.07,482.093 234.333,516.303 230.386,534.723C226.439,553.144 171.177,497.882 171.177,497.882L163.94,478.803C163.94,478.803 215.913,454.462 211.965,434.725C208.018,414.989 254.07,482.093 254.07,482.093Z" style="fill:rgb(160,97,106);fill-rule:nonzero;"/>
    </g>
    <g transform="matrix(1,0,0,1,5e-06,-72.386)">
        <path d="M264.596,584.722L318.542,655.774L447.487,751.824C447.487,751.824 540.906,771.561 519.854,786.034C498.802,800.508 438.277,772.877 438.277,772.877C438.277,772.877 308.016,703.141 280.385,674.194C252.754,645.248 201.439,596.564 201.439,596.564L264.596,584.722Z" style="fill:rgb(160,97,106);fill-rule:nonzero;"/>
    </g>
    <g transform="matrix(1,0,0,1,5e-06,-72.386)">
        <path d="M192.229,695.247L208.018,720.246L302.249,690.6C322.925,684.096 345.597,686.489 363.936,698.043C380.383,708.404 390.909,724.851 367.225,749.193C319.858,797.876 288.28,771.561 288.28,771.561C288.28,771.561 129.072,846.559 102.757,809.718C76.442,772.877 75.126,754.456 75.126,754.456C75.126,754.456 176.44,691.299 192.229,695.247Z" style="fill:rgb(47,46,65);fill-rule:nonzero;"/>
    </g>
    <g transform="matrix(1,0,0,1,5e-06,-72.386)">
        <path d="M389.593,782.087C389.593,782.087 431.698,809.718 381.699,822.876C331.7,836.033 294.858,817.613 294.858,817.613C294.858,817.613 251.438,817.613 251.438,795.245C251.438,772.877 265.912,770.245 265.912,770.245L310.648,776.824C310.648,776.824 364.594,762.351 389.593,782.087Z" style="fill:rgb(208,205,225);fill-rule:nonzero;"/>
    </g>
    <g transform="matrix(1,0,0,1,5e-06,-72.386)">
        <path d="M306.589,414.568C310.619,416.364 314.615,418.491 318.997,419.012C323.378,419.534 328.367,418.004 330.441,414.109C331.56,412.005 331.688,409.531 331.741,407.148C331.899,399.923 331.377,392.112 326.798,386.521C323.884,382.962 319.63,380.719 316.614,377.247C314.453,374.759 313.015,371.744 311.466,368.835C305.6,357.818 296.915,347.23 284.844,344.054C279.804,342.727 274.516,342.792 269.305,342.866L238.908,343.295C233.989,343.364 228.994,343.445 224.285,344.868C214.501,347.827 207.377,356.054 200.853,363.923C195.971,369.809 191.077,375.757 187.414,382.47C182.162,392.265 179.506,403.244 179.7,414.356C179.659,417.206 180.027,420.048 180.792,422.794C181.688,425.312 182.797,427.749 184.109,430.078C189.809,441.275 193.194,455.26 186.774,466.06C197.926,461.505 208.96,455.532 216.316,445.993C219.607,441.725 222.188,436.73 226.574,433.598C230.96,430.466 238.106,430.195 240.92,434.791C241.887,436.65 242.385,438.718 242.371,440.813C242.576,444.263 242.571,447.846 244.033,450.977C245.496,454.108 248.98,456.635 252.307,455.698C258.035,454.084 257.487,445.292 261.899,441.298C265.25,438.264 270.42,438.844 274.725,437.467C279.741,435.863 283.504,431.518 285.649,426.708C287.279,423.052 287.255,413.485 290.34,411.505C294.208,409.022 303.004,412.969 306.589,414.568Z" style="fill:rgb(47,46,65);fill-rule:nonzero;"/>
    </g>
    <g transform="matrix(1,0,0,1,5e-06,-72.386)">
        <path d="M159.24,472.562C161.903,471.851 164.708,471.859 167.368,472.583C175.814,474.85 194.748,480.853 198.808,489.987C204.071,501.829 222.491,520.25 222.491,520.25C222.491,520.25 247.491,545.249 242.228,562.354C236.965,579.459 217.228,599.196 217.228,599.196C217.228,599.196 222.491,680.773 196.176,701.825C169.861,722.878 159.335,708.404 159.335,728.141C159.335,747.877 77.757,809.718 61.968,771.561C61.968,771.561 69.863,700.51 67.231,675.51C64.638,650.871 68.434,497.145 159.24,472.562Z" style="fill:rgb(208,205,225);fill-rule:nonzero;"/>
    </g>
    <g transform="matrix(1,0,0,1,5e-06,-72.386)">
        <path d="M201.439,505.777C201.439,505.777 281.701,564.986 267.227,589.985C267.227,589.985 218.544,613.669 208.018,612.353C197.492,611.038 156.703,564.986 146.177,561.039C135.651,557.091 130.388,486.04 201.439,505.777Z" style="fill:rgb(208,205,225);fill-rule:nonzero;"/>
    </g>
    <g transform="matrix(1,0,0,1,61.9681,0)">
        <circle cx="498.064" cy="237.458" r="65" style="fill:rgb(208,205,225);"/>
    </g>
    <g transform="matrix(1,0,0,1,5e-06,-72.386)">
        <path d="M1096.9,225.427L732.649,225.427L732.649,149.207L1096.9,149.207L1096.9,225.427ZM734.254,223.822L1095.29,223.822L1095.29,150.812L734.254,150.812L734.254,223.822Z" style="fill:rgb(63,61,86);fill-rule:nonzero;"/>
    </g>
    <g transform="matrix(1,0,0,1,61.9681,0)">
        <rect x="645.809" y="92.065" width="362.644" height="74.615" style="fill:rgb(108,99,255);"/>
    </g>
    <g transform="matrix(1,0,0,1,61.9681,0)">
        <circle cx="416.565" cy="15.244" r="5.616" style="fill:rgb(108,99,255);"/>
    </g>
    <g transform="matrix(1,0,0,1,61.9681,0)">
        <circle cx="435.82" cy="15.244" r="5.616" style="fill:rgb(108,99,255);"/>
    </g>
    <g transform="matrix(1,0,0,1,61.9681,0)">
        <circle cx="455.076" cy="15.244" r="5.616" style="fill:rgb(108,99,255);"/>
    </g>
    <g transform="matrix(1,0,0,1,5e-06,-72.386)">
        <path d="M1138.03,512.052L462.487,512.052L462.487,72.386L1138.03,72.386L1138.03,512.052ZM464.092,510.447L1136.43,510.447L1136.43,73.991L464.092,73.991L464.092,510.447Z" style="fill:rgb(63,61,86);fill-rule:nonzero;"/>
    </g>
    <g transform="matrix(1,0,0,1,61.9681,0)">
        <rect x="401.321" y="24.338" width="673.94" height="1.605" style="fill:rgb(63,61,86);"/>
    </g>
    <g transform="matrix(1,0,0,1,5e-06,-72.386)">
        <path d="M480.138,91.641C476.617,91.641 473.719,88.744 473.719,85.223C473.719,81.702 476.617,78.805 480.138,78.805C483.659,78.805 486.556,81.702 486.556,85.223C486.552,88.743 483.657,91.637 480.138,91.641ZM480.138,80.409C477.497,80.409 475.324,82.582 475.324,85.223C475.324,87.864 477.497,90.037 480.138,90.037C482.779,90.037 484.952,87.864 484.952,85.223C484.949,82.583 482.777,80.412 480.138,80.409Z" style="fill:rgb(63,61,86);fill-rule:nonzero;"/>
    </g>
    <g transform="matrix(1,0,0,1,5e-06,-72.386)">
        <path d="M499.393,91.641C495.872,91.641 492.975,88.744 492.975,85.223C492.975,81.702 495.872,78.805 499.393,78.805C502.914,78.805 505.812,81.702 505.812,85.223C505.808,88.743 502.913,91.637 499.393,91.641ZM499.393,80.409C496.752,80.409 494.579,82.582 494.579,85.223C494.579,87.864 496.752,90.037 499.393,90.037C502.034,90.037 504.207,87.864 504.207,85.223C504.204,82.583 502.033,80.412 499.393,80.409Z" style="fill:rgb(63,61,86);fill-rule:nonzero;"/>
    </g>
    <g transform="matrix(1,0,0,1,5e-06,-72.386)">
        <path d="M518.649,91.641C518.649,91.641 518.649,91.641 518.649,91.641C515.128,91.641 512.23,88.744 512.23,85.223C512.23,81.702 515.128,78.805 518.649,78.805C522.17,78.805 525.067,81.702 525.067,85.223C525.063,88.743 522.168,91.637 518.649,91.641ZM518.649,80.409C518.649,80.409 518.649,80.409 518.649,80.409C516.008,80.409 513.835,82.582 513.835,85.223C513.835,87.864 516.008,90.037 518.649,90.037C521.289,90.037 523.462,87.864 523.462,85.223C523.459,82.583 521.288,80.412 518.649,80.409Z" style="fill:rgb(63,61,86);fill-rule:nonzero;"/>
    </g>
    <g transform="matrix(1,0,0,1,61.9681,0)">
        <rect x="612.109" y="25.14" width="1.605" height="414.346" style="fill:rgb(63,61,86);"/>
    </g>
    <g transform="matrix(1,0,0,1,61.9681,0)">
        <rect x="688.733" y="228.859" width="117.94" height="16.046" style="fill:rgb(208,205,225);"/>
    </g>
    <g transform="matrix(1,0,0,1,61.9681,0)">
        <rect x="874.067" y="228.859" width="117.94" height="16.046" style="fill:rgb(208,205,225);"/>
    </g>
    <g transform="matrix(1,0,0,1,5e-06,-72.386)">
        <path d="M875.861,310.07L756.317,310.07L756.317,292.42L875.861,292.42L875.861,310.07ZM757.922,308.466L874.257,308.466L874.257,294.024L757.922,294.024L757.922,308.466Z" style="fill:rgb(63,61,86);fill-rule:nonzero;"/>
    </g>
    <g transform="matrix(1,0,0,1,61.9681,0)">
        <rect x="688.733" y="353.217" width="117.94" height="16.046" style="fill:rgb(208,205,225);"/>
    </g>
    <g transform="matrix(1,0,0,1,5e-06,-72.386)">
        <path d="M875.861,434.428L756.317,434.428L756.317,416.778L875.861,416.778L875.861,434.428ZM757.922,432.824L874.257,432.824L874.257,418.382L757.922,418.382L757.922,432.824Z" style="fill:rgb(63,61,86);fill-rule:nonzero;"/>
    </g>
    <g transform="matrix(1,0,0,1,61.9681,0)">
        <rect x="689.134" y="289.433" width="303.273" height="16.046" style="fill:rgb(208,205,225);"/>
    </g>
    <g transform="matrix(1,0,0,1,5e-06,-72.386)">
        <path d="M1061.6,372.249L756.718,372.249L756.718,354.599L1061.6,354.599L1061.6,372.249ZM758.323,370.645L1059.99,370.645L1059.99,356.203L758.323,356.203L758.323,370.645Z" style="fill:rgb(63,61,86);fill-rule:nonzero;"/>
    </g>
    <g transform="matrix(1,0,0,1,5e-06,-72.386)">
        <path d="M1061.19,310.07L941.651,310.07L941.651,292.42L1061.19,292.42L1061.19,310.07ZM943.255,308.466L1059.59,308.466L1059.59,294.024L943.255,294.024L943.255,308.466Z" style="fill:rgb(63,61,86);fill-rule:nonzero;"/>
    </g>
    <g transform="matrix(1,0,0,1,5e-06,-72.386)">
        <path d="M571.032,357.844C534.825,357.844 505.032,328.051 505.032,291.844C505.032,255.637 534.825,225.844 571.032,225.844C607.238,225.844 637.032,255.637 637.032,291.844C636.991,328.035 607.223,357.803 571.032,357.844ZM571.032,227.844C535.922,227.844 507.032,256.735 507.032,291.844C507.032,326.953 535.922,355.844 571.032,355.844C606.141,355.844 635.032,326.953 635.032,291.844C634.992,256.75 606.126,227.884 571.032,227.844Z" style="fill:rgb(63,61,86);fill-rule:nonzero;"/>
    </g>
    <g transform="matrix(1,0,0,1,61.9681,0)">
        <rect x="748.064" y="744.458" width="283" height="2" style="fill:rgb(63,61,86);"/>
    </g>
</svg>
